<svg xmlns="http://www.w3.org/2000/svg" width="66.855" height="72.39" viewBox="0 0 66.855 72.39">
  <g id="Group_1436" data-name="Group 1436" transform="translate(-135 -98)">
    <rect id="Rectangle_389" data-name="Rectangle 389" width="6.071" height="33.532" rx="3.035" transform="translate(179.57 112.397)" fill="#5eb374"/>
    <rect id="Rectangle_390" data-name="Rectangle 390" width="6.071" height="48.567" rx="3.035" transform="translate(195.521 98)" fill="#5eb374"/>
    <rect id="Rectangle_391" data-name="Rectangle 391" width="6.071" height="41.004" rx="3.035" transform="translate(187.37 105.563)" fill="#5eb374"/>
    <rect id="Rectangle_394" data-name="Rectangle 394" width="6.071" height="33.532" rx="3.035" transform="translate(156.999 145.929) rotate(-180)" fill="#5eb374"/>
    <rect id="Rectangle_395" data-name="Rectangle 395" width="6.071" height="48.567" rx="3.035" transform="translate(141.071 146.567) rotate(-180)" fill="#5eb374"/>
    <path id="Path_669" data-name="Path 669" d="M3.035,0A3.035,3.035,0,0,1,6.071,3.035V26.589a3.035,3.035,0,0,1-6.071,0V3.035A3.035,3.035,0,0,1,3.035,0Z" transform="translate(141.071 146.567) rotate(-180)" fill="#9bcfab"/>
    <path id="Path_672" data-name="Path 672" d="M3.035,0A3.035,3.035,0,0,1,6.071,3.035V26.589a3.035,3.035,0,0,1-6.071,0V3.035A3.035,3.035,0,0,1,3.035,0Z" transform="translate(201.592 146.567) rotate(-180)" fill="#9bcfab"/>
    <rect id="Rectangle_396" data-name="Rectangle 396" width="6.071" height="41.004" rx="3.035" transform="translate(149.243 146.567) rotate(-180)" fill="#5eb374"/>
    <path id="Path_668" data-name="Path 668" d="M3.035,0A3.035,3.035,0,0,1,6.071,3.035l.018,14.64a3.035,3.035,0,0,1-6.071,0L0,3.035A3.035,3.035,0,0,1,3.035,0Z" transform="translate(149.243 146.567) rotate(-180)" fill="#9bcfab"/>
    <path id="Path_671" data-name="Path 671" d="M3.035,0A3.035,3.035,0,0,1,6.071,3.035l.018,14.64a3.035,3.035,0,0,1-6.071,0L0,3.035A3.035,3.035,0,0,1,3.035,0Z" transform="translate(193.459 146.567) rotate(-180)" fill="#9bcfab"/>
    <path id="Path_252" data-name="Path 252" d="M-603.276,198.8h0a3.044,3.044,0,0,0,3.035-3.035v.216a3.044,3.044,0,0,0-3.035-3.035h0a3.044,3.044,0,0,0-3.035,3.035v-.216A3.044,3.044,0,0,0-603.276,198.8Z" transform="translate(757.239 -52.875)" fill="#9bcfab"/>
    <path id="Path_670" data-name="Path 670" d="M-603.276,198.8h0a3.044,3.044,0,0,0,3.035-3.035v.216a3.044,3.044,0,0,0-3.035-3.035h0a3.044,3.044,0,0,0-3.035,3.035v-.216A3.044,3.044,0,0,0-603.276,198.8Z" transform="translate(785.881 -52.875)" fill="#9bcfab"/>
    <path id="Path_253" data-name="Path 253" d="M-571.855,151.332v5.046a40.506,40.506,0,0,0-23.347.293v-5.339s1.7-.117,2.182.959a1.063,1.063,0,0,0,.967.638h.1a1.044,1.044,0,0,0,.849-.425c.571-.769,1.948-2.117,3.494.007a1.058,1.058,0,0,0,.849.418h.71a1.052,1.052,0,0,0,.857-.44c.564-.791,1.919-2.168,3.428,0a1.042,1.042,0,0,0,.857.44h.381a1.037,1.037,0,0,0,.827-.4c.608-.784,2.117-2.241,3.706-.029a1.042,1.042,0,0,0,.842.425h.168a1.1,1.1,0,0,0,.982-.645C-573.8,151.837-573.247,151.332-571.855,151.332Z" transform="translate(751.831 -33.874)" fill="#5eb374"/>
    <path id="Path_254" data-name="Path 254" d="M-571.855,160.574v2.6c-13.885-3.6-23.347-.008-23.347-.008v-2.278C-584,157.088-571.855,160.574-571.855,160.574Z" transform="translate(751.831 -37.498)" fill="#5eb374"/>
    <g id="Group_680" data-name="Group 680" transform="translate(135.39 148.945)">
      <path id="Path_255" data-name="Path 255" d="M-635.487,211.331h1.868c1.394,0,2,.7,2,1.922v.227c0,1.135-.425,1.523-.824,1.679.446.172,1.006.562,1.006,1.762v.443c0,1.447-.687,2.22-2.126,2.22h-1.923Zm1.683,3.371c.782,0,1.012-.278,1.012-1.1v-.237c0-.712-.291-1.024-.958-1.024h-.539v2.36Zm-.484,3.882h.587c.774,0,1.039-.369,1.039-1.247v-.394c0-.849-.277-1.248-1.139-1.248h-.487Z" transform="translate(635.487 -210.891)" fill="#1a1818"/>
      <path id="Path_256" data-name="Path 256" d="M-622.745,219.339c0,.905,0,1.5.012,1.826h-1.172a5.106,5.106,0,0,1-.047-.646,1.189,1.189,0,0,1-1.247.747c-.659,0-1.35-.308-1.35-1.717v-4.731h1.229v4.424c0,.634.169.936.617.936.466,0,.729-.278.729-1.24v-4.119h1.229Z" transform="translate(631.437 -212.472)" fill="#1a1818"/>
      <path id="Path_257" data-name="Path 257" d="M-617.568,216.892c0-1.044.007-1.575-.012-2.153h1.168c.013.129.034.582.034,1.031a1.445,1.445,0,0,1,1.464-1.128v1.471c-.826,0-1.426.281-1.426,1.526v3.446h-1.229Z" transform="translate(627.372 -212.391)" fill="#1a1818"/>
      <path id="Path_258" data-name="Path 258" d="M-610.59,218.22v.684c0,.627.117,1.248.726,1.248s.68-.523.687-.934v-.025h1.193v.024a1.78,1.78,0,0,1-1.869,1.97c-1.684,0-1.944-1.186-1.944-2.561v-1.532c0-1.211.421-2.459,1.952-2.459,1.463,0,1.89,1.045,1.89,2.389,0,.319,0,.9-.006,1.2Zm1.446-.947v-.488c0-.622-.119-1.12-.7-1.12s-.729.54-.73,1.122v.486Z" transform="translate(624.43 -212.388)" fill="#1a1818"/>
      <path id="Path_259" data-name="Path 259" d="M-599.864,219.805c0,.385.01,1.035.032,1.276h-1.123a4.544,4.544,0,0,1-.073-.517,1.192,1.192,0,0,1-1.159.618c-1.024,0-1.428-.9-1.428-1.842v-.079c0-1.459.974-2,2.252-2,.1,0,.19,0,.282,0v-.817c0-.48-.065-.828-.552-.828s-.568.351-.578.769v.085h-1.2V216.4a1.6,1.6,0,0,1,1.818-1.768,1.522,1.522,0,0,1,1.725,1.722Zm-1.193-1.614c-.086-.007-.217-.008-.311-.008-.689,0-1.063.289-1.063,1.032v.072c0,.46.178.842.639.842.552,0,.735-.4.735-1.32Z" transform="translate(620.613 -212.388)" fill="#1a1818"/>
      <path id="Path_260" data-name="Path 260" d="M-590.861,219.339c0,.905,0,1.5.013,1.826h-1.172a5.143,5.143,0,0,1-.048-.646,1.188,1.188,0,0,1-1.247.747c-.659,0-1.35-.308-1.35-1.717v-4.731h1.229v4.424c0,.634.168.936.617.936.467,0,.729-.278.729-1.24v-4.119h1.229Z" transform="translate(616.435 -212.472)" fill="#1a1818"/>
      <path id="Path_261" data-name="Path 261" d="M-578.727,216.992v1.778c0,1.628-.715,2.415-1.979,2.415-1.284,0-1.95-.781-1.95-2.4v-1.82c0-1.6.8-2.335,2-2.335C-579.425,214.634-578.727,215.45-578.727,216.992Zm-2.694-.037v1.861c0,.8.2,1.3.741,1.3.511,0,.719-.442.719-1.308v-1.854c0-.785-.182-1.245-.726-1.245C-581.2,215.707-581.421,216.125-581.421,216.955Z" transform="translate(610.83 -212.388)" fill="#1a1818"/>
      <path id="Path_262" data-name="Path 262" d="M-573.991,219.219v-5.287h-.669v-1.059h.669v-.681c0-.9.376-1.667,1.531-1.667a2.011,2.011,0,0,1,.5.054v1.078a1.505,1.505,0,0,0-.279-.025c-.421,0-.527.241-.527.686v.554h.819v1.059h-.819v5.287Z" transform="translate(607.113 -210.526)" fill="#1a1818"/>
      <path id="Path_263" data-name="Path 263" d="M-564.815,217.109v.358c.021.671.252,1.1.838,1.1s.782-.46.782-1.1c0-.85-.237-1.181-1.17-1.82-1.032-.688-1.526-1.172-1.526-2.392,0-1.138.47-2.164,1.92-2.163,1.556,0,1.868,1.085,1.876,2.052v.3h-1.22v-.282c-.013-.559-.124-1.037-.679-1.037-.5,0-.663.4-.663.971,0,.628.167.918.971,1.434,1.289.839,1.74,1.4,1.74,2.772,0,1.206-.506,2.289-2.068,2.289-1.588,0-2.018-1.019-2.034-2.147v-.346Z" transform="translate(603.076 -210.785)" fill="#1a1818"/>
      <path id="Path_264" data-name="Path 264" d="M-557.854,213.532h.732V211.98h1.225v1.552h.872v1.059h-.872v3.794c0,.328.053.574.461.574a1.574,1.574,0,0,0,.363-.034v.924a2.092,2.092,0,0,1-.784.121c-.812,0-1.265-.286-1.265-1.368v-4.01h-.732Z" transform="translate(599.272 -211.185)" fill="#1a1818"/>
      <path id="Path_265" data-name="Path 265" d="M-548.066,219.805c0,.385.009,1.035.031,1.276h-1.122a4.7,4.7,0,0,1-.074-.517,1.191,1.191,0,0,1-1.159.618c-1.024,0-1.428-.9-1.428-1.842v-.079c0-1.459.974-2,2.252-2,.1,0,.19,0,.281,0v-.817c0-.48-.064-.828-.551-.828s-.568.351-.579.769v.085h-1.2V216.4a1.6,1.6,0,0,1,1.818-1.768,1.523,1.523,0,0,1,1.725,1.722Zm-1.193-1.614c-.086-.007-.216-.008-.311-.008-.689,0-1.063.289-1.063,1.032v.072c0,.46.178.842.638.842.552,0,.735-.4.735-1.32Z" transform="translate(596.439 -212.388)" fill="#1a1818"/>
      <path id="Path_266" data-name="Path 266" d="M-542.315,219.133v.205c0,.453.174.833.65.833.418,0,.6-.247.6-.7s-.158-.743-.918-1.176c-1.037-.555-1.439-1.029-1.439-1.934a1.589,1.589,0,0,1,1.743-1.73c1.307,0,1.742.8,1.742,1.833v.188h-1.186v-.273c0-.4-.117-.738-.563-.738-.364,0-.523.249-.523.623,0,.4.156.579.8.935,1.141.629,1.576,1.091,1.576,2.131a1.666,1.666,0,0,1-1.877,1.853,1.654,1.654,0,0,1-1.837-1.846v-.2Z" transform="translate(592.58 -212.385)" fill="#1a1818"/>
      <path id="Path_267" data-name="Path 267" d="M-536.141,213.532h.732V211.98h1.225v1.552h.872v1.059h-.872v3.794c0,.328.053.574.461.574a1.572,1.572,0,0,0,.362-.034v.924a2.091,2.091,0,0,1-.784.121c-.813,0-1.265-.286-1.265-1.368v-4.01h-.732Z" transform="translate(589.143 -211.185)" fill="#1a1818"/>
      <path id="Path_268" data-name="Path 268" d="M-529.668,212.927h1.229v6.346h-1.229Zm.01-2.282h1.229V212h-1.229Z" transform="translate(585.944 -210.58)" fill="#1a1818"/>
      <path id="Path_269" data-name="Path 269" d="M-521.984,218.988v.062c-.007.947-.246,2.131-1.858,2.131-1.519,0-1.844-1.1-1.844-2.563v-1.6c0-1.232.413-2.385,1.908-2.385,1.649,0,1.79,1.283,1.793,1.959v.173H-523.2v-.183c0-.434-.072-.915-.591-.915-.485,0-.655.441-.655,1.243v1.96c0,.738.129,1.281.645,1.281s.606-.442.617-.961v-.2Z" transform="translate(584.139 -212.385)" fill="#1a1818"/>
      <path id="Path_270" data-name="Path 270" d="M-516.6,219.133v.205c0,.453.174.833.649.833.418,0,.6-.247.6-.7s-.158-.743-.918-1.176c-1.037-.555-1.439-1.029-1.439-1.934a1.589,1.589,0,0,1,1.744-1.73c1.307,0,1.741.8,1.742,1.833v.188H-515.4v-.273c0-.4-.117-.738-.563-.738-.364,0-.523.249-.523.623,0,.4.156.579.8.935,1.141.629,1.576,1.091,1.576,2.131a1.666,1.666,0,0,1-1.877,1.853,1.654,1.654,0,0,1-1.837-1.846v-.2Z" transform="translate(580.578 -212.385)" fill="#1a1818"/>
    </g>
    <g id="Group_682" data-name="Group 682" transform="translate(135.446 160)">
      <g id="Group_681" data-name="Group 681" transform="translate(0)">
        <path id="Path_271" data-name="Path 271" d="M-635.385,232.025h.621V236h.008c.419-.747,1.5-2.76,2.149-3.973h.687l-1.777,3.188,1.917,4.7h-.692l-1.637-4.086-.656,1.122v2.964h-.621Z" transform="translate(635.385 -231.666)" fill="#1a1818"/>
        <path id="Path_272" data-name="Path 272" d="M-626.938,231.368v2.951a1.181,1.181,0,0,1,1.18-.716c.861,0,1.233.615,1.233,1.6v4.415h-.624v-4.273c0-.6-.11-1.161-.789-1.161-.787,0-1,.643-1,1.663v3.771h-.624v-8.247Z" transform="translate(631.84 -231.368)" fill="#1a1818"/>
        <path id="Path_273" data-name="Path 273" d="M-620.078,235.629c.516,2.4.968,4.493,1.031,5.123h.015c.121-.833.641-3.135,1.067-5.123h.639l-1.432,6.248c-.377,1.636-.79,1.812-1.48,1.812a1.7,1.7,0,0,1-.366-.044l0-.586a1.6,1.6,0,0,0,.334.04c.522,0,.7-.295.917-1.364l-1.4-6.106Z" transform="translate(628.753 -233.299)" fill="#1a1818"/>
        <path id="Path_274" data-name="Path 274" d="M-613.11,231.368h.621v2.982a1.147,1.147,0,0,1,1.171-.747c.909,0,1.334.741,1.334,2.022v1.741c0,1.316-.331,2.33-1.468,2.33a1.039,1.039,0,0,1-1.074-.717,5.908,5.908,0,0,1-.03.636h-.567c.014-.29.012-.827.012-1.6Zm2.492,6.069v-1.746c0-1-.262-1.51-.866-1.51-.855,0-1.02.84-1.02,1.922v1.23c0,1.16.248,1.785.968,1.785C-610.93,239.119-610.618,238.586-610.618,237.437Z" transform="translate(624.996 -231.368)" fill="#1a1818"/>
        <path id="Path_275" data-name="Path 275" d="M-605.242,238.591v.738c0,.852.156,1.687.921,1.687.733,0,.865-.623.875-1.143v-.044h.616v.037a1.5,1.5,0,0,1-1.5,1.7c-1.237,0-1.53-.976-1.53-2.255v-1.7c0-1.216.428-2.157,1.564-2.157,1.187,0,1.49.968,1.49,2.068,0,.242,0,.783,0,1.067Zm1.82-.528v-.591c0-.728-.122-1.465-.885-1.465-.821,0-.925.872-.93,1.473v.584Z" transform="translate(621.608 -233.221)" fill="#1a1818"/>
        <path id="Path_276" data-name="Path 276" d="M-598.481,237.585c0-.935,0-1.56-.012-2.02h.6c.011.179.026.454.026.954a1.383,1.383,0,0,1,1.312-1.032v.741c-.844.021-1.3.656-1.3,1.661v3.593h-.621Z" transform="translate(618.179 -233.235)" fill="#1a1818"/>
        <path id="Path_277" data-name="Path 277" d="M-590.28,232.025h1.441c1.149,0,1.746.635,1.746,1.883v.348c0,1.185-.414,2.072-1.821,2.072h-.741v3.584h-.625Zm.625,3.756h.694c.985,0,1.232-.593,1.232-1.525v-.317c0-.744-.251-1.364-1.164-1.364h-.761Z" transform="translate(614.337 -231.666)" fill="#1a1818"/>
        <path id="Path_278" data-name="Path 278" d="M-580.478,240.549c0,.417.017.773.031.919h-.583a3.524,3.524,0,0,1-.055-.569,1.057,1.057,0,0,1-1.094.667c-.919,0-1.268-.764-1.268-1.658v-.075a1.69,1.69,0,0,1,1.917-1.815c.165,0,.275,0,.429.006v-.992c0-.559-.11-1.023-.74-1.023-.656,0-.782.488-.792.977v.141h-.614v-.138c.007-.815.352-1.533,1.424-1.533,1,0,1.344.626,1.344,1.519Zm-.608-2c-.1-.007-.271-.01-.431-.01-.867,0-1.31.395-1.31,1.264v.074c0,.6.215,1.119.784,1.119.722,0,.957-.57.957-1.635Z" transform="translate(611.15 -233.221)" fill="#1a1818"/>
        <path id="Path_279" data-name="Path 279" d="M-575.094,236.6h.01c.324-.616,1.2-2.13,1.632-2.9h.669c-.157.215-1.139,1.978-1.3,2.191l1.466,3.726h-.694l-1.187-3.154c-.05.062-.543.935-.595,1v2.156h-.62v-8.247h.62Z" transform="translate(607.541 -231.368)" fill="#1a1818"/>
        <path id="Path_280" data-name="Path 280" d="M-568.36,231.368v2.951a1.181,1.181,0,0,1,1.18-.716c.861,0,1.233.615,1.233,1.6v4.415h-.624v-4.273c0-.6-.11-1.161-.789-1.161-.787,0-1,.643-1,1.663v3.771h-.624v-8.247Z" transform="translate(604.401 -231.368)" fill="#1a1818"/>
        <path id="Path_281" data-name="Path 281" d="M-562.378,234.375h.752v-1.514h.612v1.514h.944v.556h-.944v4.23c0,.351.073.669.477.669a2.289,2.289,0,0,0,.415-.035v.5a2,2,0,0,1-.609.077c-.508,0-.9-.244-.9-1.086v-4.352h-.752Z" transform="translate(601.33 -232.045)" fill="#1a1818"/>
        <path id="Path_282" data-name="Path 282" d="M-554.083,240.013c0,.7,0,1.266.012,1.533h-.591a6.549,6.549,0,0,1-.031-.7,1.074,1.074,0,0,1-1.15.8c-.5,0-1.234-.168-1.234-1.57v-4.445h.623v4.283c0,.807.219,1.163.783,1.163.511,0,.964-.309.964-1.682v-3.764h.624Z" transform="translate(598.846 -233.299)" fill="#1a1818"/>
        <path id="Path_283" data-name="Path 283" d="M-549.358,237.348c0-1.187,0-1.5-.011-1.8h.594a6.652,6.652,0,0,1,.027.685,1.152,1.152,0,0,1,1.182-.78c.663,0,1.246.361,1.246,1.51v4.5h-.625v-4.381c0-.646-.22-1.053-.779-1.053-.644,0-1.01.359-1.01,1.682v3.752h-.624Z" transform="translate(595.249 -233.22)" fill="#1a1818"/>
        <path id="Path_284" data-name="Path 284" d="M-540.885,236.6h.01c.324-.616,1.2-2.13,1.632-2.9h.668c-.157.215-1.139,1.978-1.3,2.191l1.465,3.726h-.693l-1.188-3.154c-.05.062-.543.935-.595,1v2.156h-.62v-8.247h.62Z" transform="translate(591.578 -231.368)" fill="#1a1818"/>
        <path id="Path_285" data-name="Path 285" d="M-534.15,231.368v2.951a1.179,1.179,0,0,1,1.179-.716c.862,0,1.234.615,1.234,1.6v4.415h-.624v-4.273c0-.6-.11-1.161-.79-1.161-.787,0-1,.643-1,1.663v3.771h-.624v-8.247Z" transform="translate(588.202 -231.368)" fill="#1a1818"/>
        <path id="Path_286" data-name="Path 286" d="M-527.19,235.629c.526,3.053.739,4.3.818,5.123h.013c.1-.783.272-1.71.935-5.123h.66c.63,3.419.815,4.384.89,5.1h.012c.068-.662.22-1.561.844-5.1h.636l-1.159,5.917h-.7c-.376-2.074-.754-4.062-.873-5h-.011c-.083.9-.438,2.619-.912,5h-.712l-1.1-5.917Z" transform="translate(585.064 -233.299)" fill="#1a1818"/>
        <path id="Path_287" data-name="Path 287" d="M-514.142,240.549c0,.417.016.773.03.919h-.583a3.533,3.533,0,0,1-.055-.569,1.056,1.056,0,0,1-1.093.667c-.92,0-1.268-.764-1.268-1.658v-.075a1.69,1.69,0,0,1,1.917-1.815c.165,0,.276,0,.43.006v-.992c0-.559-.112-1.023-.74-1.023-.655,0-.782.488-.792.977v.141h-.614v-.138c.007-.815.352-1.533,1.424-1.533,1,0,1.344.626,1.344,1.519Zm-.608-2c-.1-.007-.271-.01-.43-.01-.867,0-1.311.395-1.311,1.264v.074c0,.6.216,1.119.784,1.119.722,0,.957-.57.957-1.635Z" transform="translate(580.198 -233.221)" fill="#1a1818"/>
      </g>
    </g>
  </g>
</svg>
